<?xml version="1.0" encoding="UTF-8" standalone="no"?>
<!-- Created with Inkscape (http://www.inkscape.org/) -->
<svg xmlns:rdf="http://www.w3.org/1999/02/22-rdf-syntax-ns#" xmlns="http://www.w3.org/2000/svg" width="1000" height="500" version="1.1" xmlns:cc="http://creativecommons.org/ns#" xmlns:dc="http://purl.org/dc/elements/1.1/">
<metadata>
<rdf:RDF>
<cc:Work rdf:about="">
<dc:format>image/svg+xml</dc:format>
<dc:type rdf:resource="http://purl.org/dc/dcmitype/StillImage"/>
<dc:title/>
</cc:Work>
</rdf:RDF>
</metadata>
<style>
    /* <![CDATA[ */
svg path {
  stroke: rgb(76,175,80);
  fill: rgb(76,175,80);//#4CAF50;//rgb(76,175,80);
}
    /* ]]> */
</style>
<g transform="translate(94.876928,-460.927)">
<path fill="#000" d="m878,498c-3.31-1.08-6.66-0.334-10,0.0567-3.1,0.364-6.21,0.36-9.32,0.398-4.53,0.0325-8.95,1.6-13.4,2.46-5.35,0.91-10.6,2.21-16,2.83-3.81,0.41-7.64,0.497-11.5,0.525-3.63,0.005-7.26-0.0517-10.9-0.0611-4.7-0.0259-9.4-0.0267-14.1-0.0412-5.3-0.0276-10.6-0.004-15.9-0.007-4.82-0.0242-9.64,0.0134-14.5,0.0482-3.48,0.0288-6.97,0.0137-10.5,0.0222-3.78-0.0258-7.57-0.0108-11.4-0.0231-4.64-0.243-9.24-1.17-13.9-1.55-5.55-0.381-11.1-0.41-16.7-0.442-6.07-0.131-12.1,0.269-18.2-0.341-6.44-0.807-12.9-1.21-19.4-1.44-6.5-0.758-13-1.45-19.5-2.49-6-1.3-12-2.91-18-4.08-5.77-0.83-11.6-1.57-17.3-2.85-5.44-1.12-10.9-2.13-16.3-3.72-4.17-1.15-8.37-1.74-12.5-2.96-3.63-1.03-7.37-1.1-11.1-1.22-5.97-0.118-11.9-0.153-17.9-0.158-7.3,0.707-14.6,1.3-21.9,1.64-6.69,0.228-13.4,0.311-20.1,0.357-4.92-0.335-9.75,0.349-14.6,1.08-4.26,0.589-8.54,0.785-12.8,0.856-4.1,0.0724-8.2,0.0539-12.3,0.0297-4.96,0.347-9.86-0.453-14.8-1.07-5.28-0.618-10.6-0.767-15.9-0.864-5.03,0.0635-10,1.05-15,1.47-4.87,0.454-9.7,1.5-14.6,1.95-4.7-0.009-9.32,0.82-14,1.45-4.79,0.454-9.55,0.778-14.3,1.55-4.96,0.886-9.97,1.01-15,1.17-5.06,0.193-10.1,1.18-15.2,1.59-4.83,0.54-9.71-0.049-14.5,0.788-4.5,0.88-9.04,1.22-13.6,1.41-5.11,0.133-10.2,0.13-15.3,0.135-5.07-0.003-10.1-0.0167-15.2-0.003-4.43-0.001-8.85,0.009-13.3,0.0344-3.63-0.203-7.31,0.457-10.9-0.388-3.31-0.817-6.67-1.19-10-1.4-3.35,0.945-6.76,1.29-10.2,1.55-4.35-0.0806-8.62,1.03-12.9,1.54-4.26,0.478-8.54,0.558-12.8,0.615-3.81,0.0211-7.62,0.0363-11.4,0.0174-3.54,0.005-7.09,0.00082-10.6-0.003-3.25,0.004-6.5,0.0148-9.75,0.0204-3.12,0.0146-6.24-0.0121-9.36-0.0134-3.78-0.0198-7.56-0.0107-11.3-0.0264-4.16,0.4-8.24-0.462-12.4-1.07-4.39-0.621-8.81-0.746-13.2-0.837-4.25-0.131-8.45-1.14-12.7-1.56-3.37-0.304-6.75-0.336-10.1-0.348-2.85,0.008-5.7-0.005-8.55,0.0296-2.56-0.00023-5.12,0.007-7.69,0.003-2.93,0.225-5.62-0.0725-8.48-0.841-2.8-0.746-5.65-0.934-8.49-1.05-2.86-0.0785-5.72-0.0626-8.58-0.0574-2.63-0.992-5.33-1.45-8.04-1.73-2.58-1.19-5.27-1.67-7.98-1.93-2.71,0.278-5.2-0.691-7.81-1.38-1.68-0.177-3.43-0.816-5.13-0.616-0.871,0.103-1.71,0.514-2.56,0.743-3.04,0.942-6.2,0.515-9.24,1.4-3.12,0.946-6.3,1.32-9.48,1.51-2,0.298-4.05-0.144-6.04,0.0997-1.08,0.132-2.13,0.528-3.2,0.774-3.14,0.73-6.31,0.967-9.49,1.09-1.93,0.289-3.93-0.235-5.86,0.0651-0.971,0.151-1.91,0.56-2.87,0.772-3.12,1.02-6.49,0.258-9.54,1.53-2.13,0.838-4.31,1.39-6.53,1.54-2.01-0.282-3.72,0.743-5.66,1.21-3.13,0.527-6.31,0.585-9.46,0.66-1.39,0.246-2.87-0.215-4.26,0.0579-1.18,0.231-2.39,0.876-3.58,1.17-2.44,0.594-4.92,0.691-7.39,0.733-2.41,0.042-4.82,0.0258-7.23,0.0121-2.88,0.385-5.6-0.538-8.41-1.18-1.26-0.653-2.77-0.208-4.05-0.708-0.149-0.0586-1.59-1.01-1.81-1.15-0.825-0.756-1.91-0.375-2.79-0.726-0.646-0.26-1.22-0.773-1.85-1.09-1.26-0.839-2.55-0.933-3.92-0.916-1.8-0.001-3.87,0.613-5.39,1.98-5.4,3.3-13.1,10.3,10.6-8.27,0.411-0.321-0.883,0.5-1.27,0.863-1.4,1.68-2.11,3.99-3.05,6.11-1.25,2.35-2.4,4.83-3.26,7.48-1.43,3.74-2.4,7.67-3.2,11.7-1.07,4.53-1.56,9.22-1.83,13.9-0.188,4.34-0.182,8.68-0.179,13,0.393,5.31,0.858,10.6,1.08,15.9,0.305,7.74,0.0805,15.5,0.405,23.2,0.459,6.81,0.923,13.6,1.16,20.5,0.18,7.15,0.825,14.3,1.15,21.4-0.0174,8.26-0.336,16.5-0.853,24.8-0.664,7.3-1.16,14.6-1.4,22-0.321,9.48-0.302,19,0.0941,28.4,0.459,8.84,0.688,17.7,1.4,26.5,0.622,8.46,1.39,16.9,1.87,25.4,0.577,9.57,0.465,19.2,0.863,28.8,0.308,8.03,1.31,16,1.98,23.9,0.354,6.8,1.05,13.5,1.63,20.3,0.447,5.39,0.613,10.8,0.672,16.2,0.147,5.04-0.544,10-0.939,15-0.266,3.55-0.376,7.12-0.427,10.7-0.123,3.47-0.752,6.85-1.21,10.3-0.562,2.73-1.13,5.44-1.44,8.24-0.177,2.47-0.1,4.92-0.681,7.3-0.397,1.56-0.708,3.16-0.849,4.81-0.2,1.46-0.126,2.48,0.261,3.8,0.6,1.93,0.839,3.99,0.975,6.05-0.0371,1.81,0.625,3.38,0.974,5.09,0.276,1.78,0.92,3.41,1.44,5.09,0.668,2.13,1.43,4.2,2.16,6.29,0.917,1.49,1.82,3.07,2.85,4.42,1.1,1.6,2.25,3.15,3.28,4.84,1.2,1.76,2.59,3.23,3.97,4.74,1.72,1.27,3.49,2.35,5.19,3.68,1.46,1.12,3.14,0.843,4.64,1.68,1.94,0.986,3.97,1.15,6.01,1.27,2.83,0.102,5.66,0.101,8.49,0.107,3.8,0.23,7.52-0.0704,11.3-0.715,4.05-0.285,7.99-1.31,12-2.24,3.68-0.359,7.22-1.63,10.9-2.23,4.65-1.33,9.38-1.95,14.1-2.86,5.35-1.05,10.8-1.29,16.2-1.43,5.34-0.112,10.7-0.105,16-0.0667,5.72,0.0242,11.4,0.009,17.1,0.0108,5.02,0.382,9.95-0.407,14.9-1.05,4.69-0.653,9.4-0.769,14.1-0.872,5.09,0.191,10.1-0.814,15.2-1.29,6.05-0.474,12.1-0.53,18.2-0.591,5.74-0.727,11.5-1.35,17.2-1.7,4.65-0.265,9.31-0.298,14-0.303,4.56,0.155,9.09,1.13,13.6,1.54,5.68,0.411,11.4,0.432,17.1,0.461,6.94-0.299,13.8,0.437,20.8,1.03,7.45,0.628,14.9,0.791,22.4,0.882,6.36-0.304,12.7,0.297,19,1.01,4.41,0.513,8.84,0.709,13.3,0.804,3.93,0.0514,7.86,0.0547,11.8,0.0372,3.31-0.0209,6.61-0.0365,9.92-0.0446,2.9-0.0171,5.81-0.0134,8.71,0.009,4.25-0.439,8.56-0.885,12.8-1.77,5.63-0.827,11.2-1.95,16.9-2.83,6.16-1.24,12.3-2.67,18.5-3.65,6.42-0.789,12.9-1.39,19.2-2.83,4.87-1.19,9.79-1.86,14.7-2.2,3.71-0.158,7.43-0.173,11.1-0.178,3.36,0.0309,6.73,0.0231,10.1,0.0198,2.49-0.004,4.97-0.0316,7.46-0.0376,2.71,0.0134,5.42,0.038,8.13,0.04,3.03-0.001,6.05-0.005,9.08-0.008,2.61,0.003,5.21-0.0224,7.82-0.0184,2.9-0.00052,5.8,0.0293,8.7,0.0321,3.12-0.003,6.24-0.009,9.36-0.0121,3.59-0.003,7.18,0.042,10.8,0.0457,4.75,0.159,9.53-0.304,14.3,0.372,4.78,0.673,9.55,1.2,14.3,2.14,4.4,0.729,8.8,1.03,13.2,2.02,4.07,0.664,8.12,1.13,12.2,1.91,4.86,0.702,9.72,1.08,14.6,1.91,4.8,0.459,9.53,1.45,14.3,2.25,5.13,0.394,10.2,1.22,15.3,1.96,4.5,0.637,9.02,0.789,13.5,0.857,3.89-0.275,7.7,0.833,11.6,1.36,3.63,0.466,7.28,0.507,10.9,0.56,4.07,0.921,8.17,1.42,12.3,1.71,4.78,0.38,9.58-0.0578,14.3,0.616,4.73,0.655,9.44,1.2,14.1,2.13,4.69,0.708,9.38,1.15,14.1,2,4.82,0.99,9.72,0.737,14.6,1.56,4.71,0.898,9.46,1.28,14.2,1.49,3.81,0.138,7.63,0.122,11.4,0.104,2.82-0.003,5.64-0.046,8.45-0.0522,2.18-0.0352,4.36,0.004,6.54-0.0121,1.78-0.0108,3.57-0.009,5.35-0.0254,1.79-0.158,3.71,0.508,5.37-0.482,2.51-0.988,5.16-1.14,7.76-1.29,1.9-0.351,3.89,0.24,5.78-0.11,0.781-0.145,1.51-0.609,2.27-0.887,2.24-0.721,4.54-0.897,6.84-1.05,2.1-0.0347,4.2-0.0284,6.3-0.0134,2.08-1.12,4.31-1.46,6.51-1.79,2.22-0.156,4.44-0.139,6.67-0.139,0.373,0.003,0.75,0.0856,1.12,0.007,0.689-0.149,1.31-0.651,1.98-0.907,1.11-0.423,2.23-0.569,3.37-0.718,2.28,0.154,4.26-1.28,6.46-1.81,1.8-0.512,3.65-0.436,5.48-0.417,1.56-1.17,3.34-1.67,5.11-1.84,1.68-0.167,3.36-0.0877,5.04-0.0947,0.498-0.234,1.08,0.233,1.59,0.008,0.436-0.196,0.703-0.826,1.13-1.07,0.476-0.271,0.996-0.378,1.49-0.572,1.53-0.325,3.08-0.294,4.63-0.315,1.45,0.0188,2.91,0.0391,4.36,0.0377,0.734-0.271,1.72,0.352,2.43,0.004,0.44-0.216,0.757-0.745,1.17-1.04,1.58-0.717,3.23-0.808,4.88-0.914,1.49-0.0135,2.98,0.0181,4.47,0.0202,1.44,0.0108,2.88,0.0222,4.32,0.0149,1.24-0.009,2.48-0.009,3.73,0.00065,0.217-0.001,0.451,0.11,0.651-0.003,0.395-0.223,0.593-0.871,0.985-1.1,0.623-0.366,1.4-0.527,2.06-0.785,1.37-0.155,2.75-0.0749,4.12-0.0724,1.22,0.0211,2.45,0.0331,3.67,0.0248,1.19,0.007,2.37,0.0192,3.56,0.0144,1.37-0.009,2.74,0.0145,4.1,0.007,1.33,0.007,2.67-0.0166,4-0.005,1.36,0.003,2.73-0.003,4.09,0.005,1.44,0.00039,2.87-0.008,4.31,0.00087,1.25-0.0206,2.49-0.004,3.74-0.0108,1.38,0.004,2.77,0.0137,4.15,0.005,1.03,0.007,2.06-0.0305,3.09-0.0175,1.15,0.008,2.31,0.008,3.46,0.0188,0.462-0.29,1.42,0.356,1.84-0.007,0.617-0.525-0.115-1.05,1.1-1.55,5.4-2.44,9.53-6.95-12.8,9.81-0.166,0.125,0.355-0.188,0.521-0.315,15.2-11.6,9.32-9.16,15.4-11.7,0.184-0.209,0.763-0.787,0.553-0.628-27.1,20.5-15.6,13-11.3,8.51,0.161-0.268,0.26-0.63,0.482-0.805,4.87-3.83,9.82-7.46,14.7-11.2,4.54-3.42-9.08,6.87-13.6,10.3-0.7,0.532,0.914-0.805,1.61-0.828,0.862-0.935,1.75-2.54,2.14-3.94,0.803-1.36,1.49-2.28,1.8-4.04,0.399-1.39,0.922-2.68,1.39-4.03,0.003-1.56,0.58-2.87,1.28-4.06,0.13-1.75,0.815-3.22,1.26-4.84,0.433-1.17,0.516-2.5,0.585-3.79,0.0384-1.59,0.0303-3.17,0.0196-4.76,0.005-1.58-0.0136-3.16-0.002-4.73-0.0171-1.55,0.001-3.09-0.003-4.64,0.0129-2.22,0.0311-4.44,0.022-6.66,0.216-2.67-0.298-5.18-0.707-7.76-0.428-2.87-0.597-5.79-0.685-8.71-0.0693-2.44-0.0619-4.88-0.0483-7.32,0.005-2.89,0.0143-5.77,0.0255-8.66,0.0139-3.26-0.005-6.52,0.001-9.78-0.144-3.25,0.0653-6.43,0.534-9.61,0.498-3.05,0.724-6.14,0.84-9.25-0.0562-3.35,0.139-6.63,0.612-9.92,0.59-3.74,0.723-7.57,0.835-11.4,0.0899-3.74,0.0706-7.49,0.095-11.2,0.0157-4.39-0.0168-8.78,0.002-13.2,0.006-4.41-0.008-8.81-0.0145-13.2,0.0105-4.38,0.0126-8.76,0.006-13.1-0.001-4.66,0.0172-9.32,0.0193-14,0.0285-5.42,0.004-10.8,0.0136-16.3-0.002-5.2-0.0189-10.4-0.006-15.6-0.0149-4.95-0.003-9.89-0.0118-14.8-0.0113-4.24-0.0202-8.49-0.0248-12.7,0.00033-3.94-0.0145-7.87,0.009-11.8,0.006-4.14,0.007-8.28-0.0191-12.4-0.001-3.61-0.00058-7.21-0.002-10.8,0.0171-3.12-0.0234-6.25-0.0287-9.37,0.112-2.74-0.574-5.35-0.918-8.03-0.378-2.9-0.45-5.84-0.502-8.78-0.046-2.77-0.0108-5.54-0.0226-8.31-0.001-2.48-0.006-4.97-0.002-7.45,0.12-2.47-0.534-4.82-0.904-7.2-0.341-2.46-0.451-4.96-0.527-7.45-0.0666-1.83-0.0245-3.67-0.026-5.5,0.005-2.05,0.0139-4.11,0.003-6.16-0.0904-1.7,0.209-3.48-0.159-5.13-0.636-2.2-0.939-4.5-1.12-6.83-0.161-2.31-0.143-4.63-0.164-6.95,0.002-1.83-0.019-3.66-0.005-5.49-0.008-1.92,0.0194-3.85,0.0141-5.77-0.009-2.39,0.022-4.79,0.0121-7.18,0.008-2.73,0.0177-5.46-0.004-8.19-0.027-2.13-0.167-4.24,0.426-6.26,0.387-1.41,0.761-2.79,0.89-4.28,0.101-1.45,0.114-2.9,0.102-4.36,0.0306-1.91-0.105-3.81,0.189-5.69,0.394-1.44,0.837-2.88,1.05-4.39,0.301-1.7-0.0397-3.44,0.608-5.01,0.495-1.21,0.79-2.5,0.924-3.87,0.0399-1.65,0.0525-3.17,0.556-4.71,0.1,0.0107,0.246,0.146,0.301,0.034,0.144-0.294,0.0624-0.715,0.186-1.03,0.257-0.646,0.881-1.31,1.2-2,0.0313-0.225,0.126-1.57,0.431-1.81,4.88-3.9,9.79-7.73,14.8-11.4,4.59-3.34-9.05,6.98-13.6,10.5-0.148,0.115,0.303-0.216,0.452-0.329,4.92-3.74,9.83-7.49,14.7-11.2,0.26-0.504,1.46,0.0709,1.72-0.135,0.164-0.129,0.324-0.854,0.156-0.734-16.2,11.6-18.8,12.7-13.4,10.4,5.58-3.14,8.67-5.76,16-10.7,0,0-13.3,14.6-13.3,14.6,6.77-4.94,17.9-17,13.9-9.27-3.69,6.5-0.844,1.63-15,11.8-0.239,0.173-0.543-0.167-0.812-0.115-0.349,0.0677-0.737,0.83-1.08,0.957,36.3-28-1.1,1.01-1.42,1.29-0.907,0.777,19-8.34,12.6-10.9-0.271,0.704-0.611,2.34-1.02,2.83-0.106,0.127-0.346-0.211-0.426-0.0528-0.139,0.274-0.0322,0.66-0.0481,0.991-1.11,0.767-1.33,0.245-1.29,2.11-0.0538,1.75-0.106,3.57-0.539,5.24-0.287,1.18-0.748,0.955-0.899,1.42-0.219,0.676,0.179,1.77-0.003,2.47-0.149,1.82-0.327,3.58-0.822,5.3-0.178,0.373-0.515,0.611-0.628,1.03-0.253,0.924,0.183,2.19,0.0133,3.15-0.009,1.56,0.0288,3.13-0.0115,4.69-0.0565,1.83-0.0549,3.66-0.589,5.38-0.211,0.944-0.691,1.38-0.857,2.03-0.221,0.856,0.168,1.98-0.0201,2.85-0.0212,2.73-0.012,5.46-0.004,8.19-0.0101,2.39,0.0217,4.78,0.0121,7.17-0.005,1.92,0.0223,3.85,0.0101,5.77,0.0101,1.83-0.021,3.66-0.0209,5.49-0.0172,2.21-0.0156,4.42,0.0427,6.63,0.078,1.97,0.196,3.93,0.755,5.79,0.605,2.17,0.798,4.18,0.659,6.49-0.0121,2.06-0.005,4.11-0.008,6.17-0.007,1.8,0.0163,3.6-0.009,5.4,0.003,2.27,0.0389,4.54,0.26,6.8,0.33,2.68,1.11,5.26,1.18,7.97,0.003,2.49-0.005,4.98-0.0128,7.47-0.0186,2.75,0.00059,5.5-0.005,8.24,0.0164,2.74,0.0218,5.49,0.286,8.21,0.303,2.92,1.09,5.72,1.17,8.65-0.005,3.14-0.0457,6.27-0.0288,9.41-0.00099,3.61-0.0004,7.21-0.002,10.8-0.0257,4.15-0.0256,8.29-0.019,12.4,0.0242,3.93,0.009,7.86,0.009,11.8-0.005,4.25-0.0136,8.51-0.0249,12.8-0.009,4.95,0.003,9.9-0.0118,14.9,0.0124,5.21-0.004,10.4-0.006,15.6,0.0101,5.42-0.0148,10.8,0.0136,16.3,0.002,4.65,0.0204,9.31,0.0193,14-0.007,4.38-0.005,8.75,0.006,13.1-0.007,4.41-0.02,8.82-0.0118,13.2,0.0215,4.39-0.005,8.77,0.0174,13.2,0.0283,3.78,0.0294,7.57-0.0159,11.4-0.0799,4.01-0.219,8.03-0.629,12-0.42,3.11-1.02,6.08-0.805,9.29-0.0528,3.31-0.0999,6.64-0.64,9.88-0.405,2.96-1.03,5.77-0.769,8.82,0.006,3.26-0.0128,6.52-0.00052,9.78,0.009,2.88,0.0155,5.76,0.0116,8.64,0.008,2.4-0.005,4.79,0.005,7.19,0.0342,2.68,0.0896,5.37,0.421,8.02,0.403,2.85,1.21,5.62,1.03,8.56-0.009,2.21,0.009,4.42,0.0219,6.63-0.005,1.55,0.0135,3.09-0.002,4.64,0.0127,1.57-0.003,3.14,0.009,4.71-0.002,1.63,0.007,3.25,0.0111,4.88,0.0218,1.7-0.0132,3.38-0.193,5.06-0.203,0.884-0.339,1.91-0.613,2.75-0.0748,0.23-0.214,0.412-0.322,0.617-0.113,0.133-0.279,0.215-0.34,0.399-0.0816,0.245-0.0396,0.534-0.0597,0.801-0.0645,1.33-0.272,3.39-1.39,3.72-0.0514,1.77-0.368,3.53-1.16,4.97-0.829,1.46-0.295,3.87-1.56,4.99-0.155,0.118-0.374,0.151-0.466,0.355-0.145,0.321-0.0824,0.748-0.188,1.09-0.33,1.08-1.27,1.78-1.35,3.04-0.308,1.21-0.55,1.55-1.38,2.18-4.93,3.78-9.77,7.8-14.8,11.3-4.52,3.09,19.7-11.7,13.1-10.4-5.05,6.3-10.9,11.7-17.7,14.4-5.03,4.26,1.97-1.68,13.1-10.1,0.187-0.143-0.29,0.44-0.477,0.583-5.73,4.38-10.3,8.26-15.7,11.7-1.19,0.954-2.59-0.0963-3.93,0.182-1.16,0.0108-2.33,0.0108-3.49,0.0188-1.02,0.0121-2.04-0.0243-3.06-0.0175-1.39-0.008-2.77,0.001-4.16,0.005-1.24-0.005-2.48,0.0108-3.72-0.0108-1.44,0.008-2.87,0.00052-4.31,0.00086-1.37,0.009-2.73,0.004-4.1,0.005-1.33,0.0108-2.66-0.0121-3.99-0.005-1.37-0.008-2.74,0.016-4.12,0.005-1.19-0.007-2.39,0.004-3.58-0.00055-1.19-0.0198-2.39-0.0228-3.58,0.0478-1.19,0.0858-2.4,0.252-3.48,0.978-1.49,0.634-2.78,1.34-4.39,0.892-1.24,0.0108-2.49,0.009-3.73-0.005-1.44-0.0134-2.87-0.0121-4.31-0.007-1.42,0.005-2.84,0.0269-4.25,0.296-1.5,0.301-2.94,0.934-4.38,1.58-1.43,0.286-2.89-0.0591-4.33,0.0402-1.42-0.009-2.84-0.0134-4.26,0.109-1.37,0.136-2.74,0.427-4.02,1.15-1.64,0.697-3.15,0.858-4.88,0.676-1.57,0.0367-3.15,0.119-4.68,0.597-1.77,0.642-3.55,1.55-5.4,1.36-1.7,0.141-3.37,0.453-5.01,1.08-2.18,0.831-4.37,1.21-6.62,1.54-2.26,0.629-4.47,1.47-6.82,1.16-2.13,0.0452-4.28,0.0761-6.38,0.567-2.27,0.479-4.5,1.49-6.81,1.34-2.05,0.0178-4.1,0.003-6.15,0.255-2.19,0.262-4.35,0.826-6.5,1.43-2.76,0.49-5.56,0.126-8.33,0.553-2.56,0.339-5.06,0.996-7.58,1.66-1.93-0.061-3.86-0.036-5.79-0.0225-1.77-0.0163-3.54-0.0145-5.31-0.0252-2.17-0.0157-4.35,0.025-6.52-0.004-2.8,0.003-5.6-0.0259-8.4-0.0296-3.83-0.0329-7.65-0.072-11.5-0.326-4.79-0.358-9.56-0.926-14.3-1.71-4.88-0.462-9.77-0.699-14.6-1.66-4.69-0.776-9.41-1.07-14.1-2.04-4.64-0.849-9.32-1.27-14-1.91-4.78-0.27-9.56-0.118-14.3-0.536-4.08-0.393-8.13-1.19-12.2-1.51-3.72-0.0897-7.44-0.272-11.1-0.891-3.77-0.606-7.53-1.24-11.3-1.08-4.57-0.189-9.14-0.476-13.7-1.24-5.13-0.795-10.3-1.27-15.4-2-4.75-0.871-9.51-1.53-14.3-2.24-4.87-0.767-9.77-0.967-14.6-1.92-4.08-0.707-8.2-0.973-12.3-1.94-4.34-0.875-8.75-1.06-13.1-2.02-4.7-0.861-9.44-1.27-14.2-1.9-4.71-0.237-9.42-0.0607-14.1-0.0873-3.61,0.004-7.23,0.0476-10.8,0.0457-3.11-0.004-6.22-0.0107-9.34-0.0121-2.92,0.003-5.84,0.0327-8.75,0.0321-2.6,0.004-5.19-0.0203-7.79-0.0183-3.02-0.003-6.04-0.007-9.06-0.007-2.73,0.003-5.46,0.0277-8.2,0.0399-2.46-0.007-4.93-0.0369-7.39-0.0478-3.36-0.0141-6.72-0.0416-10.1-0.02-3.65,0.001-7.31,0.004-11,0.315-4.83,0.449-9.63,1.31-14.4,2.34-6.4,1.08-12.8,1.8-19.2,2.74-6.19,1.19-12.4,2.5-18.6,3.68-5.62,0.987-11.2,1.9-16.9,2.91-4.39,0.663-8.78,1.52-13.2,1.47-2.91,0.0228-5.82,0.0272-8.73,0.0137-3.29-0.004-6.58-0.0108-9.87-0.0235-3.95-0.0121-7.9,0.0172-11.9-0.111-4.44-0.182-8.87-0.614-13.3-1.15-6.24-0.733-12.5-0.928-18.7-0.879-7.49-0.162-15-0.426-22.5-1.08-6.9-0.591-13.8-0.919-20.7-0.729-5.77-0.0563-11.5-0.0879-17.3-0.601-4.49-0.49-8.98-1.41-13.5-1.25-4.6,0.0397-9.21,0.0838-13.8,0.391-5.77,0.426-11.5,1.2-17.3,1.51-6.03,0.0854-12.1,0.202-18.1,0.864-5.12,0.582-10.2,1.31-15.4,1.17-4.64,0.143-9.28,0.447-13.9,1.1-5.03,0.664-10.1,0.882-15.1,0.684-5.71-0.007-11.4-0.0341-17.1-0.025-5.33,0.0303-10.7,0.003-16,0.183-5.32,0.251-10.6,0.668-15.9,1.82-4.74,0.96-9.5,1.75-14.2,2.98-3.6,0.794-7.18,1.72-10.8,2.34-4,0.931-8.04,1.4-12.1,2-3.86,0.513-7.73,0.393-11.6,0.402-2.91-0.003-5.82,0.0332-8.72-0.307-2.22-0.341-4.37-1.01-6.49-1.93-1.84-0.285-3.54-1.32-5.13-2.56-1.87-1.39-3.88-2.48-5.54-4.32-1.5-1.7-2.98-3.42-4.29-5.39-1.07-1.56-2.13-3.13-3.21-4.67-1.2-1.83-2.5-3.57-3.41-5.7-0.696-2.12-1.52-4.15-2.16-6.3-0.672-1.87-1.37-3.87-1.76-5.85-0.262-1.99-1.22-3.73-1.23-5.78-0.0388-1.62-0.0784-3.27-0.52-4.8-0.537-1.89-1.2-3.53-0.936-5.63,0.066-1.94,0.173-3.9,0.609-5.76,0.193-0.899,0.697-1.8,0.846-2.68,0.208-1.22-0.114-2.59,0.115-3.81,0.144-3,0.474-6.02,1.3-8.84,0.742-3.01,0.743-6.29,1.51-9.31,0.0187-3.7,0.0482-7.41,0.376-11.1,0.353-4.86,1.06-9.69,1.11-14.6-0.05-5.3-0.0941-10.6-0.474-15.9-0.499-6.79-1.3-13.5-1.54-20.4-0.62-8.06-1.68-16.1-1.99-24.2-0.472-9.57-0.184-19.2-0.778-28.7-0.492-8.41-1.38-16.8-1.95-25.2-0.719-8.9-0.877-17.8-1.31-26.8-0.473-9.58-0.588-19.1-0.374-28.7,0.17-7.44,0.514-14.9,1.33-22.2,0.689-8,0.782-16.1,1.07-24.1-0.316-7.15-1.01-14.3-1.27-21.4-0.188-6.82-0.533-13.6-1.05-20.4-0.403-7.73-0.14-15.5-0.48-23.2-0.226-5.4-0.61-10.8-1.3-16.1,0.0018-4.44,0.0049-8.88,0.145-13.3,0.189-5,0.532-9.99,1.53-14.8,0.985-4.12,1.43-8.45,2.97-12.3,1-2.78,1.74-5.66,3.02-8.26,1.27-1.99,1.99-4.27,2.91-6.53,3.83-8.75,12.1-11.7,19-15.3,2.18-0.497,4.25-1.15,6.48-0.544,1.56,0.341,3.01,1.06,4.47,1.84,1.56,0.69,3.24,0.866,4.73,1.92,1.72,0.624,3.59,0.549,5.32,1.21,2.68,0.603,5.34,0.705,8.06,0.577,2.38-0.009,4.76-0.007,7.14-0.136,2.36-0.19,4.71-0.569,7.03-1.22,2.71-0.689,5.42-0.624,8.17-0.656,3.05-0.152,6.12-0.327,9.1-1.29,1.97-0.598,3.91-0.685,5.91-0.966,2.11-0.507,4.2-1.2,6.32-1.67,3.21-0.26,6.4-0.691,9.58-1.4,2.98-0.523,5.99-0.271,8.99-0.523,3.1-0.254,6.18-0.724,9.24-1.38,3.14-0.479,6.3-0.329,9.44-0.659,3.12-0.372,6.19-1.06,9.28-1.73,3.11-0.323,6.21-0.728,9.28-1.42,2.85-0.306,5.69,0.208,8.48,0.993,2.51,0.698,5.03,0.762,7.57,1.06,2.69,0.477,5.31,1.39,7.99,1.92,2.6,0.453,5.17,1.28,7.79,1.39,2.9,0.008,5.8,0.0134,8.69,0.218,2.94,0.256,5.86,0.712,8.75,1.45,2.69,0.468,5.41,0.188,8.12,0.251,2.56-0.005,5.12-0.001,7.69-0.0121,2.85,0.0254,5.7-0.009,8.54,0.0489,3.41,0.0818,6.83,0.241,10.2,0.681,4.17,0.549,8.32,1.45,12.5,1.37,4.48,0.152,8.96,0.432,13.4,1.14,4.04,0.582,8.07,0.851,12.1,0.671,3.8-0.0157,7.59-0.007,11.4-0.0264,3.13-0.0003,6.26-0.0274,9.38-0.0134,3.24,0.005,6.48,0.0165,9.71,0.0226,3.54-0.00033,7.08,0.00063,10.6,0.017,3.79-0.009,7.58,0.0308,11.4-0.043,4.2-0.0939,8.4-0.27,12.6-0.865,4.35-0.651,8.68-1.33,13.1-1.5,3.5-0.4,6.99-1.32,10.5-1.14,3.39,0.362,6.75,0.995,10.1,1.55,3.54,0.125,7.08,0.0457,10.6,0.0713,4.41,0.0259,8.81,0.0385,13.2,0.0425,5.06,0.0217,10.1,0.0218,15.2,0.0158,5.09-0.0121,10.2-0.007,15.3-0.308,4.51-0.318,9-0.907,13.5-1.56,4.83-0.257,9.68-0.191,14.5-0.697,5.08-0.539,10.1-1.43,15.3-1.45,4.94-0.199,9.87-0.603,14.8-1.47,4.77-0.691,9.57-0.777,14.3-1.53,4.67-0.697,9.35-1.03,14-1.37,4.87-0.606,9.71-1.6,14.6-1.9,5.07-0.534,10.1-1.44,15.2-1.16,5.36,0.147,10.7,0.437,16.1,1.11,4.87,0.59,9.74,0.901,14.6,0.693,4.09-0.0195,8.18-0.0139,12.3-0.121,4.21-0.174,8.42-0.46,12.6-1.11,4.92-0.652,9.84-0.831,14.8-0.651,6.64-0.007,13.3-0.0207,19.9-0.361,7.34-0.395,14.7-1.19,22-1.53,6.05-0.0108,12.1-0.117,18.1,0.0712,3.87,0.187,7.75,0.499,11.5,1.77,4.12,1.14,8.31,1.74,12.4,3.05,5.36,1.35,10.7,2.57,16.1,3.6,5.75,1.06,11.5,1.87,17.3,2.87,5.95,1.32,11.9,2.85,17.9,3.99,6.4,0.999,12.8,1.64,19.3,2.21,6.5,0.295,13,0.857,19.5,1.5,6.04,0.272,12.1,0.0486,18.1,0.141,5.61,0.0546,11.2,0.121,16.8,0.609,4.6,0.457,9.19,1.37,13.8,1.23,3.8-0.0121,7.59,0.003,11.4-0.0231,3.47,0.008,6.94-0.007,10.4,0.0222,4.8,0.0353,9.59,0.0724,14.4,0.0481,5.3-0.003,10.6,0.0208,15.9-0.005,4.72-0.0121,9.44-0.0107,14.2-0.0211,3.64,0.004,7.28-0.0186,10.9-0.0478,3.72-0.0595,7.45-0.195,11.2-0.698,5.31-0.798,10.6-1.97,15.9-2.97,4.59-1.04,9.19-2.3,13.9-2.15,3.07-0.0854,6.13-0.272,9.19-0.621,3.56-0.305,7.09-0.215,10.6,0.692,0,0-13.1,14.7-13.1,14.7z"/>
</g>
</svg>
