<?xml version="1.0" encoding="UTF-8" standalone="no"?>
<svg class="circle" xmlns:rdf="http://www.w3.org/1999/02/22-rdf-syntax-ns#" xmlns="http://www.w3.org/2000/svg" version="1.1" xmlns:cc="http://creativecommons.org/ns#" xmlns:dc="http://purl.org/dc/elements/1.1/" viewBox="0 0 274 176" preserveAspectRatio="none">
<metadata>
<rdf:RDF>
<cc:Work rdf:about="">
<dc:format>image/svg+xml</dc:format>
<dc:type rdf:resource="http://purl.org/dc/dcmitype/StillImage"/>
<dc:title/>
</cc:Work>
</rdf:RDF>
</metadata>
<style>
    /* <![CDATA[ */
svg path {
  stroke: rgb(76,175,80);
  fill: rgb(76,175,80);//#4CAF50;//rgb(76,175,80);
}
    /* ]]> */
</style>
<g transform="translate(-256.93482,-324.25204)">
<path fill-rule="nonzero" fill="#000" d="m335,353c-3.87,2.22-7.72,4.46-11.6,6.65-0.457,0.257,0.863-0.599,1.32-0.865,4.68-2.74,9.44-5.35,14.1-8.17,3.79-2.3-7.68,4.43-11.5,6.63-0.373,0.212,0.718-0.471,1.09-0.683,4.65-2.64,9.32-5.26,14-7.88,1.35-0.259,2.51-1.01,3.79-1.46,0.469-0.166,0.971-0.238,1.43-0.434,0.878-0.377,1.68-0.919,2.54-1.33,2.79-0.928,5.66-1.7,8.56-2.2,3.06-1.44,6.51-1.51,9.65-2.6,2.1-0.92,4.39-1.04,6.59-1.51,1.23-0.26,2.42-0.664,3.64-0.979,3.92-0.986,7.96-1.25,12-1.42,4.1,0.188,8.06-0.83,12.1-1.4,4.04-0.528,8.12-0.622,12.2-0.685,4.04-0.0406,8.09-0.0277,12.1-0.0226,4.04,0.006,8.08,0.008,12.1,0.009,3.72-0.363,7.27,0.655,10.9,1.31,0.531,0.0754,1.07,0.111,1.59,0.226,1.16,0.256,2.28,0.685,3.43,0.982,1.86,0.48,3.71,0.79,5.56,1.34,3.84,1.17,7.52,2.77,11.4,3.91,3.52,0.678,6.7,2.41,9.77,4.2,1.85,1.19,3.96,2.07,5.74,3.38,0.912,0.669,1.74,1.45,2.63,2.14,2.26,1.58,4.63,2.98,6.64,4.86,1.72,1.69,3.6,3.23,5.24,5,1.59,1.73,3.39,3.23,4.8,5.11,1.73,1.7,2.98,3.78,4.46,5.69,1.39,1.95,3.25,3.47,4.66,5.42,1.49,2.14,2.91,4.31,4.38,6.47,1.53,2.16,2.45,4.63,3.71,6.94,1.38,2.74,2.12,5.66,2.58,8.68,0.857,2.78,1.56,5.6,2.56,8.34,1.12,3,1.55,6.16,1.77,9.34,0.172,3.16,0.168,6.33,0.162,9.5-0.005,3.22-0.735,6.46-1.61,9.55-0.849,2.53-1.91,4.95-3.22,7.28-1.51,2.72-3.15,5.37-4.91,7.94-1.52,2.01-3.41,3.7-5.07,5.59-1.66,1.79-3.33,3.52-5.23,5.06-2.36,2.03-4.98,3.68-7.54,5.43-0.415,0.273-0.815,0.57-1.25,0.819-4.7,2.71-9.38,5.44-14.1,8.06-0.444,0.245-0.962,0.32-1.43,0.516-1.53,0.644-3.02,1.29-4.43,2.17-1.99,0.897-3.82,2.13-5.84,2.94-5.83,2.35,2.2-1.1-3.17,1.24-1.41,0.682-2.98,0.827-4.47,1.23-1.65,0.448-3.24,1.04-4.92,1.44-0.615,0.112-1.24,0.188-1.84,0.336-1.28,0.311-2.51,0.779-3.78,1.11-1.99,0.513-3.99,0.839-6.02,1.12-3.94,1.31-8.11,1.55-12.1,2.55-3.66,1.28-7.58,1.29-11.3,2.16-3.92,1.03-7.95,1.45-12,1.7-4.1-0.119-8.06,0.908-12.1,1.49-4.04,0.532-8.12,0.624-12.2,0.686-3.94,0.233-7.96-0.387-11.8,0.355-3.47,0.903-7.02,1.28-10.6,1.5-3.96,0.191-7.94,0.186-11.9,0.191-4.01,0.002-8.01-0.014-12-0.006-3.78,0.002-7.56-0.003-11.3-0.006-1.98-0.129-3.98,0.159-5.96-0.002-1.74-0.143-3.52-0.674-5.23-1.02-2.18-0.596-4.49-0.448-6.7-0.806-0.35-0.0569-2.75-0.733-3.12-0.837-3.21-0.802-6.51-1.14-9.78-1.62-1.75-0.365-3.57-0.257-5.33-0.524-1.85-0.282-3.71-0.847-5.55-1.22-2-0.935-4.16-1.44-6.21-2.19-0.955-0.348-1.85-0.841-2.79-1.24-1.72-1.13-3.83-1.3-5.58-2.36-0.914-0.552-1.74-1.24-2.62-1.84-2.16-1.35-3.75-3.3-5.47-5.13-1.13-1.22-2.1-2.54-2.99-3.94-0.934-1.16-1.75-2.44-2.39-3.78-0.872-1.42-1.53-2.97-2.08-4.54-1.1-2.29-1.86-4.72-2.66-7.14-0.529-2.73-1.15-5.39-1.97-8.05-0.861-2.94-1.05-6-1.17-9.04-0.0924-2.66-0.108-5.32-0.114-7.99-0.105-2.14,0.054-4.23,0.407-6.34,0.558-2.11,1.2-4.22,1.88-6.29,0.727-2.46,1.93-4.67,3.28-6.83,1.65-2.55,2.97-5.27,4.58-7.85,1.92-2.92,3.85-5.84,5.89-8.68,2.49-3.32,4.86-6.72,7.29-10.1,2.64-3.66,5.5-7.13,8.49-10.5,2.72-3.14,5.35-6.35,7.99-9.55,2.41-3.16,5.1-6.1,7.72-9.09,3.12-3.43,6.09-6.97,9.37-10.3,2.96-3.17,6.5-5.67,10-8.17,3.12-2.1,6.17-4.29,9.15-6.58,5.39-4.22,11.7-7.41,17.6-10.7,0.769-0.429,1.66-0.58,2.47-0.936,1.47-0.552,0.735-0.307,2.2-0.739,0,0-11.8,9.18-11.8,9.18-1.39,0.513-0.688,0.239-2.11,0.822-4.82,1.98-11.6,6.2,9.26-5.72,0.397-0.226-0.736,0.543-1.12,0.79-3.07,1.97,0.477-0.509-2.66,1.74-2.79,2.45-6.12,4.57-9.18,6.68-3.46,2.56-7.17,4.81-10.1,7.97-3.29,3.25-6.31,6.69-9.37,10.2-2.63,2.99-5.35,5.89-7.73,9.07-2.77,3.09-5.25,6.44-7.96,9.59-3.14,3.22-5.9,6.79-8.61,10.4-2.46,3.32-4.75,6.76-7.21,10.1-2.19,2.69-3.88,5.74-5.93,8.54-0.592,0.962-1.23,1.89-1.82,2.86-0.972,1.62-1.47,3.5-2.73,4.95-1.23,2.16-2.74,4.12-3.35,6.57-0.836,1.96-1.12,4.08-1.98,6.02-0.349,2.04-0.702,4.04-0.534,6.12-0.017,2.65-0.0448,5.31,0.0202,7.97,0.106,2.92,0.235,5.85,1.03,8.68,0.403,1.34,0.958,2.69,1.25,4.05,0.28,1.31,0.253,2.69,0.725,3.97,0.776,2.41,1.49,4.85,2.69,7.09,0.508,1.53,1.19,3,2.02,4.38,0.598,1.3,1.43,2.49,2.29,3.62,0.845,1.33,1.76,2.57,2.82,3.74,1.59,1.79,3.15,3.58,5.2,4.88,0.374,0.252,2.05,1.4,2.5,1.63,1.78,0.93,3.83,1.28,5.56,2.33,2.86,1.23,5.83,2.2,8.77,3.22,3.59,0.752,7.18,1.34,10.8,1.67,3.32,0.491,6.67,0.83,9.91,1.74,3.21,0.807,6.51,0.889,9.74,1.58,3.65,0.734,7.26,1.02,11,0.806,3.78-0.002,7.57-0.007,11.4,0.002,4,0.0163,8,0.015,12,0.0123,3.95-0.0146,7.91-0.0214,11.9-0.288,3.55-0.3,7.05-0.878,10.5-1.58,3.96-0.322,7.95-0.0519,11.9-0.195,4.03-0.0897,8.07-0.232,12.1-0.84,4.04-0.637,8.05-1.44,12.2-1.4,4.01-0.317,7.98-0.89,11.9-1.86,3.78-0.65,7.6-1.07,11.3-2.17,4.06-0.8,8.15-1.45,12.2-2.47,3.92-0.662,7.72-1.81,11.6-2.7,3.12-0.861,6.26-1.69,9.28-2.85,3.07-1.23,6.02-2.7,8.91-4.3,1.5-0.73,3.03-1.37,4.56-2.05,0.45-0.2,1.77-0.866,1.35-0.611-23.3,14-13.8,8.19-10.1,5.89,0.834-0.56,1.61-1.21,2.46-1.74,2.05-1.27,0.806-0.107,2.69-1.63,0.411-0.334,0.754-0.749,1.17-1.07,0.404-0.314,0.857-0.559,1.28-0.838,0.928-0.82,2.12-1.48,2.96-2.39,0.257-0.283,0.409-0.65,0.666-0.933,0.244-0.268,0.55-0.471,0.825-0.707,0.266-0.293,0.532-0.587,0.798-0.88,2.31-2.13-0.523,0.596,1.61-1.84,0.823-0.94,1.86-1.68,2.73-2.56,0.314-0.315,0.553-0.697,0.829-1.05,1.99-2.32,3.41-5.12,4.98-7.73,1.27-2.29,2.53-4.55,3.36-7.05,0.607-1.51,0.84-2.99,1.19-4.57,0.0371-0.169,0.613-2.78,0.639-3.03,0.051-0.503,0.005-1.01,0.007-1.52,0.00054-3.14,0.0286-6.28-0.109-9.42-0.188-3.04-0.514-6.08-1.58-8.96-1.04-2.83-1.8-5.73-2.7-8.61-0.39-2.85-1.06-5.61-2.38-8.19-1.22-2.28-2.14-4.67-3.6-6.82-1.48-2.13-2.92-4.28-4.39-6.42-1.41-1.92-3.33-3.39-4.64-5.39-1.45-1.93-2.77-3.96-4.47-5.68-1.41-1.8-3.18-3.27-4.7-4.98-1.66-1.7-3.47-3.24-5.17-4.91-2.05-1.77-4.38-3.17-6.54-4.8-2.58-2.03-5.32-3.8-8.23-5.34-3.05-1.65-6.15-3.25-9.58-3.95-3.81-1.21-7.49-2.81-11.3-3.88-3.5-0.888-7.02-1.74-10.6-2.41-3.54-0.696-7.04-1.44-10.7-1.12-4.04-0.002-8.08-0.005-12.1-0.0102-4.04-0.004-8.08-0.0165-12.1,0.0466-4.03,0.0905-8.07,0.235-12.1,0.836-4.04,0.627-8.06,1.41-12.2,1.29-3.98,0.225-7.95,0.604-11.8,1.67-3.41,0.872-6.9,1.4-10.2,2.55-3.27,0.776-6.55,1.48-9.75,2.51-2.83,0.633-5.69,1.27-8.33,2.49-2.53,1.23-5.2,2.13-7.79,3.23,3.88-2.27,7.76-4.53,11.6-6.8,0.375-0.219-0.749,0.439-1.12,0.658-4.65,2.72-9.33,5.38-13.9,8.16-3.76,2.26,7.58-4.43,11.4-6.62,0.446-0.256-0.869,0.552-1.3,0.828-4.65,2.74-9.29,5.48-13.9,8.23,0,0,11.7-9.43,11.7-9.43z"/>
</g>
</svg>
