<?xml version="1.0" encoding="UTF-8" standalone="no"?>
<!-- Created with Inkscape (http://www.inkscape.org/) -->
<svg xmlns:rdf="http://www.w3.org/1999/02/22-rdf-syntax-ns#" xmlns="http://www.w3.org/2000/svg" version="1.1" xmlns:cc="http://creativecommons.org/ns#" xmlns:dc="http://purl.org/dc/elements/1.1/" viewBox="0 0 44 44">
<metadata>
<rdf:RDF>
<cc:Work rdf:about="">
<dc:format>image/svg+xml</dc:format>
<dc:type rdf:resource="http://purl.org/dc/dcmitype/StillImage"/>
<dc:title/>
</cc:Work>
</rdf:RDF>
</metadata>
<g fill="#000" transform="translate(-2.645369,-1004.6143)">
<path d="m28,1020c-0.127-0.175-0.334-0.243-0.53-0.31-0.289-0.058-0.584-0.096-0.878-0.127-0.401-0.066-0.805-0.099-1.21-0.145-0.428-0.042-0.855-0.1-1.28-0.157-0.425-0.067-0.846-0.154-1.27-0.229-0.437-0.092-0.878-0.162-1.32-0.21-0.553-0.087-1.11-0.114-1.67-0.133-0.575-0.016-1.15-0.011-1.73-0.01-0.435,0.019-0.868,0-1.3-0.034-0.364-0.02-0.729-0.046-1.09-0.024-0.432,0.035-0.863,0.097-1.29,0.179-0.414,0.06-0.818,0.173-1.23,0.245-0.284,0.029-0.56,0.097-0.842,0.136-0.0947,0.022-0.195,0.01-0.29,0.021-0.089,0.014-0.176,0.041-0.267,0.053-0.244,0.053-0.482,0.132-0.726,0.188-0.284,0.092-0.579,0.133-0.875,0.16-0.202,0.016-0.406,0.017-0.609,0.017h-0.51c-0.161,0-0.322,0.0007-0.484,0.0005-0.185,0-0.374-0.02-0.556,0.017-0.133,0.016-0.267,0.055-0.402,0.049-0.00281-0.0001-0.214-0.027-0.221-0.029-0.139-0.029-0.284-0.014-0.423-0.034-0.0112,0-0.175-0.041-0.193-0.046-0.0619-0.029-0.139-0.015-0.202-0.036-0.0535-0.018-0.0971-0.059-0.15-0.081-0.0861-0.01-0.151-0.055-0.236-0.074-0.092-0.021-0.187-0.019-0.281-0.017-0.019,0.017-0.0567-0.014-0.0767,0-0.0106,0.01-0.00522,0.029-0.0145,0.038-0.00953,0.01-0.0282,0.01-0.0378,0.017-0.0118,0.012-0.0379,0.055-0.023,0.047,0.732-0.42,1.45-0.857,2.18-1.29-0.191,0.113-0.283,0.311-0.381,0.502-0.141,0.339-0.196,0.703-0.232,1.07-0.0415,0.348-0.0109,0.696,0.0143,1.04,0.0273,0.392,0.0269,0.786,0.0253,1.18-0.00687,0.535-0.00804,1.07-0.00676,1.6,0.00119,0.538,0.00173,1.08-0.00101,1.61,0.0177,0.559-0.0202,1.11-0.0702,1.67-0.0549,0.617-0.194,1.22-0.321,1.83-0.0957,0.482-0.195,0.962-0.313,1.44-0.132,0.455-0.248,0.915-0.348,1.38-0.121,0.653-0.221,1.31-0.289,1.97-0.0499,0.573-0.0551,1.15-0.0578,1.72,0.000984,0.53-0.00317,1.06-0.00317,1.59-0.00303,0.561-0.00673,1.12,0.0213,1.68,0.0182,0.544,0.0537,1.09,0.0931,1.63,0.0337,0.467,0.0754,0.935,0.125,1.4,0.0502,0.413,0.0787,0.827,0.0977,1.24,0.017,0.311,0.0183,0.622,0.0231,0.934-0.00314,0.287,0.00339,0.575-0.00807,0.862-0.0213,0.245-0.0445,0.49-0.0563,0.736,0.00349,0.155-0.0183,0.306-0.0572,0.455-0.0454,0.218-0.0943,0.436-0.136,0.655-0.0356,0.153-0.0465,0.3-0.0107,0.452,0.00696,0.085-0.0161,0.166-0.0308,0.248,0.00634,0.056-0.00072,0.098-0.025,0.146-0.00915,0.017-0.00764,0.068-0.0236,0.056-0.0153-0.012-0.0168-0.036-0.0252-0.052,0.0638-0.049-0.101-0.111-0.0823-0.172,0.0109-0.035,0.038,0.016,0.0986,0.028,0.0225,0,0.0452-0.01,0.068-0.01h0.104c0.305-0.046,0.6-0.144,0.903-0.197,0.408-0.048,0.808-0.15,1.2-0.271,0.543-0.194,1.1-0.326,1.67-0.395,0.537-0.055,1.08-0.054,1.62-0.056,0.553,0.025,1.1-0.071,1.63-0.2,0.477-0.116,0.964-0.177,1.45-0.236,0.472-0.07,0.935-0.192,1.4-0.312,0.496-0.14,0.989-0.289,1.49-0.428,0.576-0.157,1.16-0.25,1.75-0.336,0.618-0.12,1.24-0.179,1.87-0.21,0.597-0.013,1.19-0.078,1.79-0.128,0.593-0.029,1.18,0.038,1.78,0.069,0.583,0.021,1.17,0.01,1.75,0.04,0.55,0.043,1.1,0.061,1.65,0.072,0.486,0.033,0.972,0.063,1.46,0.075,0.385,0,0.767,0,1.15,0.035,0.287,0.031,0.575,0.041,0.864,0.046,0.302,0.0005,0.604,0.01,0.907,0.01,0.433,0.011,0.868-0.012,1.3-0.067,0.293-0.035,0.584-0.096,0.879-0.11,0.121,0.01,0.248-0.023,0.368-0.01,0.0546,0.01,0.106,0.03,0.16,0.044,0.111,0.034,0.229,0.021,0.342,0.037,0.0699,0.01,0.138,0.03,0.207,0.045,0.0956,0.035,0.204,0.016,0.3,0.04,0.0482,0.012,0.0932,0.035,0.141,0.049,0.0804,0.028,0.141,0.079,0.21,0.125,0.0121,0.01,0.0283,0.01,0.0399,0.017,0.194,0.146-0.0462-0.013,0.07,0.063,0.788,0.474,1.67-0.814-2.19,1.28,0.161-0.285,0.271-0.598,0.369-0.91,0.173-0.682,0.256-1.38,0.3-2.08,0.0384-0.682-0.0311-1.36-0.0724-2.04-0.0081-0.464-0.0673-0.923-0.123-1.38-0.0366-0.484-0.0254-0.97-0.0066-1.45,0.0192-0.343,0.0406-0.686,0.0554-1.03,0.0098-0.295,0.0752-0.583,0.143-0.869,0.0745-0.308,0.159-0.612,0.22-0.923,0.0406-0.272,0.0834-0.543,0.113-0.816,0.011-0.275,0.0465-0.548,0.0937-0.819,0.0589-0.283,0.0812-0.57,0.0943-0.858,0.0069-0.258,0.0054-0.516,0.0032-0.774-0.000307-0.206,0.0026-0.413-0.0109-0.618-0.0231-0.136-0.0422-0.274-0.0794-0.407-0.0335-0.13-0.0585-0.26-0.101-0.387-0.0332-0.088-0.0579-0.178-0.0665-0.271,0.0095-0.12-0.0164-0.232-0.0397-0.349-0.0105-0.115-0.0411-0.223-0.0776-0.331-0.0242-0.1-0.0579-0.198-0.104-0.29-0.034-0.087-0.0716-0.17-0.126-0.245-0.0165-0.021-0.0088-0.012-0.0231-0.03,0,0,2.27-1.34,2.27-1.34,0.0135,0.026,0.0063,0.011,0.0219,0.041,0.0471,0.088,0.0967,0.176,0.128,0.273,0.05,0.105,0.102,0.213,0.129,0.326,0.0306,0.12,0.0811,0.234,0.0836,0.359,0.022,0.125,0.0684,0.245,0.0647,0.373,0.0014,0.074,0.0055,0.148,0.0292,0.218,0.0371,0.13,0.0783,0.258,0.1,0.392,0.0452,0.148,0.0683,0.296,0.0942,0.449,0.0343,0.215-0.0034,0.437,0.0105,0.654-0.0018,0.263-0.0025,0.526-0.0108,0.789-0.0084,0.299-0.0212,0.598-0.0755,0.892-0.0527,0.262-0.0944,0.525-0.0981,0.794-0.0224,0.282-0.0747,0.559-0.114,0.839-0.0477,0.317-0.137,0.624-0.214,0.935-0.0586,0.274-0.133,0.545-0.159,0.825-0.0161,0.352-0.0554,0.702-0.0928,1.05-0.0352,0.469-0.0294,0.942-0.0107,1.41,0.0574,0.469,0.13,0.937,0.112,1.41,0.0209,0.698,0.0526,1.4,0.026,2.09-0.0314,0.701-0.0842,1.4-0.199,2.1-0.0748,0.311-0.179,0.611-0.271,0.916-2.19,1.23-1.65,1.87-2.4,1.23-0.0715-0.064-0.154-0.108-0.25-0.124-0.139-0.033-0.284-0.04-0.422-0.081-0.185-0.032-0.374-0.031-0.557-0.075-0.158-0.017-0.319,0.01-0.478,0.012-0.277,0.028-0.554,0.052-0.83,0.083-0.441,0.035-0.883,0.058-1.33,0.055-0.309,0-0.618,0.011-0.927,0-0.289-0.012-0.579-0.027-0.866-0.063-0.371-0.031-0.744-0.023-1.12-0.044-0.482-0.021-0.962-0.054-1.44-0.084-0.552-0.015-1.1-0.043-1.66-0.079-0.58-0.026-1.16-0.018-1.74-0.048-0.585-0.036-1.17-0.086-1.76-0.039-0.595,0.049-1.19,0.105-1.79,0.121-0.62,0.039-1.24,0.109-1.85,0.224-0.588,0.097-1.17,0.204-1.75,0.371-0.502,0.148-1,0.306-1.51,0.435-0.47,0.113-0.938,0.238-1.42,0.292-0.475,0.064-0.952,0.124-1.42,0.241-0.549,0.112-1.1,0.179-1.67,0.16-0.532,0-1.07,0.012-1.59,0.081-0.565,0.09-1.11,0.242-1.65,0.429-0.411,0.117-0.826,0.213-1.25,0.281-0.313,0.075-0.627,0.162-0.949,0.178-0.0398,0-0.0796,0.01-0.12,0.01-0.0306,0-0.0613-0.01-0.0917-0.01-0.0158,0-0.0274,0.016-0.0424,0.022-0.088,0.031-0.144-0.126-0.174-0.166-0.00965-0.026-0.0244-0.05-0.0289-0.077-0.00661-0.039,0.0451-0.126,0.0853-0.138,0.00137-0.076,0.00151-0.162,0.0381-0.229,0.00492-0.01,0.0143-0.011,0.0147-0.02,0.0027-0.05-0.0154-0.1-0.0184-0.151-0.00676-0.115,0.00769-0.226,0.0293-0.34,0.0382-0.212,0.0726-0.426,0.118-0.635,0.00843-0.153,0.0806-0.288,0.0818-0.44,0.015-0.25,0.0387-0.499,0.0706-0.747,0.0286-0.281,0.00749-0.563,0.0132-0.845,0.00447-0.313,0.00499-0.625,0.0036-0.938-0.00897-0.411-0.029-0.823-0.0794-1.23-0.0488-0.471-0.0777-0.945-0.111-1.42-0.0348-0.546-0.0695-1.09-0.0888-1.64-0.0274-0.564-0.0299-1.13-0.0276-1.69-0.00138-0.53-0.00888-1.06-0.00265-1.59,0.00774-0.587,0.0229-1.17,0.076-1.76,0.0625-0.664,0.172-1.32,0.26-1.98,0.0769-0.465,0.168-0.928,0.306-1.38,0.138-0.478,0.254-0.96,0.361-1.45,0.125-0.595,0.272-1.19,0.325-1.79,0.0504-0.548,0.091-1.1,0.076-1.65-0.00262-0.538-0.00183-1.08-0.000251-1.61,0.0015-0.531,0.00156-1.06-0.0109-1.59-0.00803-0.384-0.017-0.769-0.0406-1.15-0.0237-0.362-0.0646-0.724-0.0237-1.09,0.0327-0.38,0.0787-0.758,0.181-1.13,0.065-0.21,0.163-0.432,0.292-0.608,0.757-0.453,1.51-0.914,2.27-1.36,0.0172-0.011,0.0397,0.0003,0.0594,0,0.0164,0,0.0321-0.012,0.0485-0.01,0.0437,0,0.0886,0.036,0.136,0.026,0.107,0.013,0.212,0.036,0.313,0.073,0.0889,0.035,0.178,0.049,0.26,0.099,0.0935,0.049,0.204,0.046,0.304,0.08,0.194,0.034,0.394,0.034,0.591,0.056,0.201,0,0.397-0.043,0.597-0.058h0.578c0.161,0,0.321-0.0001,0.482,0,0.17,0,0.339-0.0005,0.509,0.0009,0.193,0,0.386-0.01,0.577-0.028,0.287-0.036,0.568-0.102,0.846-0.185,0.25-0.071,0.502-0.141,0.759-0.182,0.184-0.033,0.369-0.043,0.555-0.07,0.269-0.043,0.539-0.08,0.809-0.122,0.404-0.081,0.807-0.167,1.21-0.231,0.437-0.069,0.876-0.144,1.32-0.158,0.372-0.01,0.744,0.01,1.11,0.042,0.421,0.034,0.842,0.042,1.26,0.039,0.571,0.01,1.14,0.01,1.71,0.028,0.57,0.02,1.14,0.058,1.7,0.133,0.45,0.054,0.899,0.121,1.34,0.216,0.419,0.082,0.84,0.156,1.26,0.219,0.424,0.056,0.85,0.11,1.28,0.154,0.408,0.044,0.817,0.08,1.22,0.134,0.314,0.036,0.637,0.057,0.936,0.167,0.227,0.096,0.44,0.207,0.616,0.386,0,0-2.22,1.38-2.22,1.38z"/>
<path d="m11.9,1040c0.347-0.302,0.721-0.564,1.09-0.832,0.564-0.385,1.13-0.766,1.68-1.17,0.512-0.366,1.02-0.744,1.52-1.12,0.468-0.326,0.911-0.687,1.36-1.04,0.493-0.395,0.97-0.812,1.46-1.22,0.459-0.386,0.924-0.764,1.38-1.15,0.423-0.35,0.856-0.684,1.28-1.03,0.383-0.313,0.763-0.629,1.13-0.956,0.377-0.349,0.787-0.654,1.18-0.987,0.39-0.338,0.787-0.666,1.18-0.994,0.377-0.299,0.73-0.63,1.07-0.974,0.313-0.323,0.622-0.65,0.918-0.99,0.257-0.322,0.543-0.614,0.811-0.924,0.281-0.313,0.569-0.619,0.862-0.92,0.304-0.318,0.626-0.616,0.932-0.933,0.35-0.387,0.706-0.766,1.08-1.13,0.357-0.354,0.748-0.664,1.13-0.993,0.316-0.28,0.638-0.552,0.962-0.819,0.293-0.243,0.58-0.492,0.859-0.753,0.268-0.256,0.531-0.517,0.806-0.764,0.263-0.238,0.527-0.475,0.805-0.693,0.285-0.183,0.547-0.4,0.813-0.614,0.245-0.208,0.491-0.413,0.739-0.616,0.231-0.226,0.502-0.395,0.757-0.588,0.208-0.153,0.423-0.295,0.631-0.448,0.132-0.084,0.256-0.184,0.359-0.307,0.148-0.095,0.258-0.242,0.392-0.356,0.115-0.152,0.263-0.265,0.424-0.356,0.145-0.116,0.261-0.266,0.381-0.41,0.0798-0.099,0.163-0.193,0.248-0.286,0.0119-0.021,0.0189-0.048,0.0358-0.065,0.0308-0.031,0.0765-0.043,0.109-0.071,0.0564-0.05,0.106-0.11,0.157-0.167,0.0988-0.179,0.289-0.242,0.432-0.365,0.0954-0.056,0.17-0.15,0.258-0.215,0.0342-0.026,0.0757-0.039,0.111-0.063,0.0529-0.022,0.0808-0.088,0.127-0.119,0.0976-0.065-0.0112,0.042,0.0664-0.042,0.0465-0.055,0.0434-0.21,0.126-0.218,0.0729,0.096,0.117,0.163-0.0401,0.165-0.26,0.017-0.513-0.05-0.771-0.078-0.456-0.045-0.914-0.048-1.37-0.05-0.326-0.013-0.668-0.026-0.984-0.12-0.228-0.075-0.466-0.09-0.703-0.101-0.323-0.012-0.646-0.012-0.969-0.012-0.405,0-0.811,0-1.22-0.0008-0.395-0.0009-0.791-0.0009-1.19,0-0.373,0-0.745,0.0002-1.12-0.001-0.359,0-0.718,0.001-1.08,0-0.218,0.034-0.418-0.045-0.627-0.093-0.112-0.021-0.226-0.017-0.339-0.014-0.0166-0.026-0.0602,0.023-0.0788,0-0.983-1.05,1.93-2.51,2.91-2.29,0.325,0.023,0.645,0,0.967-0.04,0.437-0.046,0.876-0.055,1.31-0.068,0.369,0.018,0.73-0.033,1.09-0.078,0.348-0.042,0.698-0.037,1.05-0.045h1.05c0.349,0,0.699-0.017,1.05,0.027,0.357,0.053,0.716,0.073,1.08,0.083,0.254,0.027,0.52-0.042,0.768,0.033,0.131,0.056,0.274,0.044,0.409,0.07,0.0869,0.017,0.171,0.048,0.258,0.067,0.175,0.048,0.357,0.034,0.534,0.06,0.0969,0.015,0.192,0.043,0.288,0.06,0.239,0.062,0.491,0.023,0.725,0.094,0.156,0.05,0.317,0.078,0.48,0.081,0.0928,0.001,0.186-0.0002,0.278-0.012,0.0825,0,0.181,0.285,0.191,0.362,0.0029,0.022-0.033,0.104-0.0403,0.121-0.0702,0.241-0.13,0.485-0.192,0.729-0.0863,0.358-0.104,0.727-0.147,1.09-0.0453,0.313-0.0678,0.628-0.0784,0.945-0.031,0.333-0.0732,0.665-0.11,0.998-0.0551,0.331-0.0797,0.667-0.109,1-0.0376,0.245-0.0774,0.49-0.0979,0.737-0.0174,0.254-0.0206,0.508-0.0206,0.762-0.0104,0.274,0.0398,0.543,0.0716,0.813,0.0286,0.249,0.0366,0.5,0.041,0.75,0.0042,0.254-0.0051,0.508,0.0012,0.761,0.000696,0.2,0.0057,0.4,0.005,0.601-0.0054,0.174,0.0415,0.342,0.0661,0.513,0.0265,0.202,0.0337,0.406,0.0433,0.61,0.0088,0.118,0.0051,0.236,0.0099,0.354-0.000752,0.088,0.0014,0.177-0.0013,0.265-0.0014,0.084-0.0013,0.171,0.0042,0.257,0.000745,0.016,0.0027,0.03,0.0048,0.046,0,0-3.13,1.7-3.13,1.7,0.002-0.017,0.0038-0.033,0.0048-0.051,0.0054-0.088,0.0059-0.174,0.0043-0.262-0.0029-0.088-0.000244-0.177-0.000549-0.265,0.0051-0.118,0.0027-0.237,0.0086-0.356,0.0034-0.191,0.000501-0.383-0.0167-0.573-0.0221-0.188-0.0819-0.369-0.0928-0.556-0.000496-0.202,0.0045-0.405,0.0059-0.607,0.0068-0.252-0.001-0.504-0.000071-0.757-0.000883-0.241-0.002-0.482-0.0195-0.722-0.0239-0.284-0.0799-0.565-0.0889-0.849,0.000671-0.26-0.0048-0.521,0.0038-0.781,0.0126-0.26,0.0365-0.518,0.0961-0.771,0.0703-0.329,0.0548-0.673,0.125-1,0.0481-0.317,0.0446-0.641,0.109-0.956,0.0128-0.33,0.0318-0.661,0.0803-0.988,0.0546-0.371,0.0706-0.745,0.128-1.12,0.0427-0.243,0.099-0.485,0.146-0.725,0.0148-0.105,0.0019-0.154,0.0859-0.035,0.0343,0.049,0.0669,0.098,0.0916,0.153h-0.0172c-0.0945-0.014-0.19-0.017-0.283-0.036-0.161-0.032-0.319-0.082-0.481-0.114-0.239-0.012-0.474-0.055-0.709-0.101-0.275-0.046-0.555-0.056-0.827-0.126-0.223-0.043-0.448-0.066-0.671-0.11-0.241,0.013-0.484-0.016-0.725-0.023-0.359-0.026-0.716-0.065-1.07-0.098-0.346-0.012-0.691,0-1.04,0h-1.04c-0.345,0.013-0.69,0.029-1.03,0.075-0.365,0.04-0.73,0.043-1.1,0.043-0.434,0.013-0.867,0.039-1.3,0.089-0.33,0.032-0.671,0.017-0.991,0.117-0.845,0.886-1.06,1.11,2.88-1.82,0.0277-0.021-0.174-0.265-0.193-0.32-0.0089-0.024,0.0957,0.043,0.0764,0.012,0.125,0.015,0.249,0.039,0.369,0.076,0.183,0.049,0.363,0.049,0.551,0.048,0.354,0,0.709,0.012,1.06,0,0.374,0,0.747,0.0001,1.12,0h1.18c0.407,0.0008,0.814,0,1.22,0,0.333,0,0.666,0,0.998,0.017,0.25,0.021,0.493,0.074,0.736,0.141,0.303,0.044,0.606,0.094,0.913,0.086,0.465,0.012,0.93,0.03,1.39,0.068,0.277,0.024,0.554,0.026,0.83,0.054,0.206,0.056,0.319,0.21,0.372,0.427-0.000808,0.127-0.0876,0.13-0.122,0.236-0.0113,0.045-0.0111,0.092-0.0273,0.135-0.0221,0.057-0.0975,0.096-0.121,0.155-0.0323,0.04-0.0556,0.09-0.096,0.121-0.0205,0.016-0.0491,0.014-0.0708,0.026-0.0747,0.045-0.124,0.133-0.206,0.169-0.24,0.172,0.0813-0.068-0.152,0.143-0.0829,0.074-0.201,0.098-0.293,0.156-0.0315,0.035-0.227,0.295-0.234,0.3-0.0159,0.012-0.0379,0-0.0569,0.012-0.0884,0.093-0.177,0.185-0.263,0.28-0.129,0.144-0.256,0.292-0.371,0.449-0.113,0.157-0.28,0.23-0.433,0.33-0.163,0.22,0.0432-0.042-0.135,0.133-0.0444,0.044-0.0657,0.109-0.11,0.153-0.0196,0.018-0.0488,0.023-0.0688,0.043-0.0219,0.02-0.0367,0.049-0.0551,0.072-0.143,0.071-0.226,0.231-0.355,0.328-0.218,0.159-0.435,0.322-0.664,0.461-0.131,0.095-0.254,0.2-0.387,0.292-0.084,0.057-0.179,0.099-0.261,0.16-0.0408,0.03-0.0742,0.071-0.111,0.108-0.242,0.22-0.507,0.406-0.746,0.63-0.263,0.218-0.52,0.446-0.801,0.637-0.297,0.184-0.562,0.418-0.824,0.654-0.276,0.249-0.558,0.488-0.817,0.759-0.279,0.264-0.548,0.535-0.849,0.771-0.325,0.277-0.662,0.539-0.986,0.818-0.372,0.336-0.764,0.647-1.14,0.98-0.37,0.357-0.74,0.714-1.07,1.11-0.294,0.328-0.604,0.634-0.92,0.937-0.291,0.298-0.583,0.593-0.859,0.906-0.282,0.295-0.541,0.616-0.826,0.909-0.28,0.369-0.61,0.685-0.913,1.03-0.352,0.34-0.685,0.701-1.06,1.01-0.408,0.312-0.798,0.651-1.19,0.984-0.389,0.329-0.78,0.654-1.18,0.974-0.365,0.344-0.752,0.656-1.13,0.979-0.434,0.341-0.856,0.7-1.3,1.03-0.465,0.385-0.918,0.785-1.39,1.16-0.479,0.411-0.968,0.806-1.44,1.22-0.45,0.353-0.883,0.73-1.35,1.06-0.522,0.364-1.02,0.763-1.55,1.12-0.539,0.412-1.1,0.784-1.66,1.17-0.349,0.236-0.696,0.485-1.02,0.763,0,0-3.22,1.38-3.22,1.38z"/>
</g>
</svg>
