<?xml version="1.0" encoding="UTF-8" standalone="no"?>
<svg xmlns:rdf="http://www.w3.org/1999/02/22-rdf-syntax-ns#" xmlns="http://www.w3.org/2000/svg" preserveAspectRatio="none" version="1.1" xmlns:cc="http://creativecommons.org/ns#" xmlns:dc="http://purl.org/dc/elements/1.1/" viewBox="0 0 132.29172 6.6145834">
 <metadata>
  <rdf:RDF>
   <cc:Work rdf:about="">
    <dc:format>image/svg+xml</dc:format>
    <dc:type rdf:resource="http://purl.org/dc/dcmitype/StillImage"/>
    <dc:title/>
   </cc:Work>
  </rdf:RDF>
 </metadata>
<style>
    /* <![CDATA[ */
svg path {
  stroke: rgb(76,175,80);
  fill: rgb(76,175,80);//#4CAF50;//rgb(76,175,80);
}
    /* ]]> */
</style>
 <g transform="translate(0 -290)">
  <path id="line" style="stroke-width:.296" d="m131 295c-0.887 0.008-1.77-0.103-2.64-0.282-0.973-0.195-1.95-0.391-2.93-0.526-1.38-0.158-2.76-0.172-4.14-0.189-1.67 0.012-3.34 0.205-5.01 0.38-1.69 0.226-3.39 0.391-5.09 0.583-1.79 0.243-3.59 0.495-5.39 0.692-2.04 0.201-4.08 0.239-6.12 0.268-1.94 0.0205-3.88 0.0174-5.82 0.0148-1.95-0.0666-3.89-0.192-5.84-0.261-1.8-0.0536-3.6-0.0601-5.4-0.0627-1.8 0.0463-3.6-0.0941-5.4-0.19-1.71-0.0856-3.42-0.109-5.13-0.12-1.18-0.005-2.36-0.002-3.55-0.001-1.17-0.009-2.34 0.0209-3.5-0.0221-1.23-0.117-2.46-0.21-3.7-0.259-1.35-0.0391-2.69-0.0273-4.04-0.124-1.36-0.121-2.71-0.21-4.07-0.148-1.27 0.0966-2.54 0.164-3.81 0.197-1.34 0.0765-2.69-0.0474-4.03-0.147-1.14-0.0491-2.26-0.237-3.39-0.35-0.976-0.088-1.95-0.106-2.93-0.114-0.861-0.005-1.72 0.001-2.58 0.001-0.843 0.002-1.69-0.00051-2.53 0.001-0.786 0.0485-1.56-0.0464-2.34-0.155-0.667-0.112-1.34-0.116-2.01-0.216-0.904-0.205-1.82-0.143-2.73-0.0825-0.921 0.0415-1.84 0.119-2.75 0.235-1.09 0.142-2.18 0.175-3.28 0.197-1.08 0.0149-2.16 0.0176-3.24 0.0236-0.691 0.005-1.38 0.006-2.07 0.002-1.01-0.0108-2.01-0.008-3.02-0.008-0.842 0.001-1.68 0.005-2.53 0.008-0.59 0.002-1.18 0.003-1.77 0.004-0.516 0.0461-1.02-0.0759-1.52-0.181-0.259-0.0586-0.522-0.104-0.785-0.124-0.141-0.0138-0.282-0.0122-0.423-0.0118-0.0119 0.00071-0.0239-0.00042-0.0358-0.00061l-2.55-2.47c0.0136-0.00064 0.0273-0.002 0.041-0.002 0.149-0.003 0.298-0.00077 0.447-0.008 0.286 0.002 0.571 0.009 0.855 0.0536 0.486 0.0963 0.966 0.273 1.46 0.289 0.593 0.00038 1.19 0.001 1.78 0.004 0.848 0.003 1.7 0.007 2.54 0.008 1 0.00067 2 0.003 3-0.007 0.694-0.003 1.39-0.0008 2.08 0.006 1.08 0.007 2.17 0.0123 3.25 0.00021 1.08-0.0155 2.16-0.0344 3.23-0.153 0.925-0.113 1.84-0.265 2.77-0.264 0.931-0.0642 1.87-0.211 2.79-0.0392 0.666 0.109 1.33 0.176 2 0.217 0.765 0.114 1.52 0.293 2.3 0.235 0.843 0.001 1.69-0.002 2.53-0.002 0.865-0.002 1.73-0.00011 2.59 0.002 0.989 0.006 1.98 0.003 2.96 0.0768 1.14 0.0879 2.26 0.298 3.4 0.371 1.33 0.096 2.66 0.263 3.99 0.194 1.27-0.0271 2.53-0.0735 3.8-0.179 1.38-0.0974 2.75-0.0563 4.12 0.0863 1.34 0.109 2.67 0.137 4.01 0.137 1.24 0.0382 2.47 0.0908 3.7 0.238 1.16 0.112 2.32 0.031 3.48 0.0524 1.19-0.00013 2.38-0.00058 3.56 0.0109 1.72 0.0202 3.45 0.0559 5.17 0.128 1.79 0.0807 3.58 0.242 5.37 0.2 1.81 0.006 3.61 0.0106 5.42 0.0582 1.94 0.057 3.89 0.17 5.83 0.277 1.94 0.00077 3.88 0.006 5.82-0.004 2.03-0.0182 4.06-0.0455 6.08-0.226 1.79-0.184 3.58-0.439 5.37-0.699 1.7-0.193 3.4-0.345 5.09-0.59 1.68-0.167 3.35-0.382 5.04-0.438 1.39 0.004 2.77 0.0001 4.15 0.111 0.991 0.101 1.97 0.29 2.95 0.464 0.839 0.199 1.69 0.389 2.55 0.373l2.52 2.45z"/>
 </g>
</svg>
