<?xml version="1.0" encoding="UTF-8" standalone="no"?>
<svg xmlns:rdf="http://www.w3.org/1999/02/22-rdf-syntax-ns#" xmlns="http://www.w3.org/2000/svg" preserveAspectRatio="none" version="1.1" xmlns:cc="http://creativecommons.org/ns#" xmlns:dc="http://purl.org/dc/elements/1.1/" viewBox="0 0 6.6145858 132.29167">
 <metadata>
  <rdf:RDF>
   <cc:Work rdf:about="">
    <dc:format>image/svg+xml</dc:format>
    <dc:type rdf:resource="http://purl.org/dc/dcmitype/StillImage"/>
    <dc:title/>
   </cc:Work>
  </rdf:RDF>
 </metadata>
<style>
    /* <![CDATA[ */
svg path {
  stroke: rgb(76,175,80);
  fill: rgb(76,175,80);//#4CAF50;//rgb(76,175,80);
}
    /* ]]> */
</style>
 <g transform="translate(0 -165)">
  <path id="line" style="stroke-width:.296" d="m4.59 167c0.00834 0.887-0.103 1.77-0.282 2.64-0.195 0.973-0.391 1.95-0.526 2.93-0.158 1.38-0.172 2.76-0.189 4.14 0.012 1.67 0.205 3.34 0.38 5.01 0.226 1.69 0.391 3.39 0.583 5.09 0.243 1.79 0.495 3.59 0.692 5.39 0.201 2.04 0.239 4.08 0.268 6.12 0.0205 1.94 0.0174 3.88 0.0148 5.82-0.0666 1.95-0.192 3.89-0.261 5.84-0.0536 1.8-0.0601 3.6-0.0627 5.4 0.0463 1.8-0.0941 3.6-0.19 5.4-0.0856 1.71-0.109 3.42-0.12 5.13-0.005 1.18-0.00244 2.36-0.00106 3.55-0.00941 1.17 0.021 2.34-0.022 3.5-0.117 1.23-0.21 2.46-0.259 3.7-0.0391 1.35-0.0273 2.69-0.124 4.04-0.121 1.36-0.21 2.71-0.148 4.07 0.0966 1.27 0.164 2.54 0.197 3.81 0.0765 1.34-0.0474 2.69-0.147 4.03-0.0491 1.14-0.237 2.26-0.35 3.39-0.088 0.976-0.106 1.95-0.114 2.93-0.00508 0.861 0.00109 1.72 0.00129 2.58 0.00183 0.843-0.000513 1.69 0.00106 2.53 0.0485 0.786-0.0464 1.56-0.155 2.34-0.112 0.667-0.116 1.34-0.216 2.01-0.205 0.904-0.143 1.82-0.0826 2.73 0.0415 0.921 0.119 1.84 0.235 2.75 0.142 1.09 0.175 2.18 0.197 3.28 0.0149 1.08 0.0176 2.16 0.0236 3.24 0.00492 0.691 0.00555 1.38 0.00173 2.07-0.0108 1.01-0.00837 2.01-0.00771 3.02 0.00119 0.842 0.00454 1.68 0.00798 2.53 0.00244 0.59 0.00318 1.18 0.00353 1.77 0.0461 0.516-0.0759 1.02-0.181 1.52-0.0586 0.259-0.104 0.522-0.124 0.785-0.0138 0.141-0.0122 0.282-0.0118 0.423 0.000706 0.0119-0.000417 0.0239-0.00061 0.0358 0 0-2.47 2.55-2.47 2.55-0.000642-0.0136-0.00238-0.0273-0.00193-0.041-0.00283-0.149-0.00077-0.298-0.00791-0.447 0.00222-0.286 0.00913-0.571 0.0536-0.855 0.0963-0.486 0.273-0.966 0.289-1.46 0.000385-0.593 0.00109-1.19 0.00352-1.78 0.00343-0.848 0.00674-1.7 0.00796-2.54 0.000674-1 0.00312-2-0.00709-3-0.00318-0.694-0.000802-1.39 0.00571-2.08 0.00746-1.08 0.0123-2.17 0.000213-3.25-0.0155-1.08-0.0344-2.16-0.153-3.23-0.113-0.925-0.265-1.84-0.264-2.77-0.0642-0.931-0.211-1.87-0.0392-2.79 0.109-0.666 0.176-1.33 0.217-2 0.114-0.765 0.293-1.52 0.235-2.3 0.00122-0.843-0.00158-1.69-0.00186-2.53-0.00195-0.865-0.000108-1.73 0.00205-2.59 0.00639-0.989 0.00292-1.98 0.0768-2.96 0.0879-1.14 0.298-2.26 0.371-3.4 0.096-1.33 0.263-2.66 0.194-3.99-0.0271-1.27-0.0735-2.53-0.179-3.8-0.0974-1.38-0.0563-2.75 0.0863-4.12 0.109-1.34 0.137-2.67 0.137-4.01 0.0382-1.24 0.0908-2.47 0.238-3.7 0.112-1.16 0.031-2.32 0.0524-3.48-0.000129-1.19-0.000578-2.38 0.0109-3.56 0.0201-1.72 0.0559-3.45 0.127-5.17 0.0807-1.79 0.242-3.58 0.2-5.37 0.0056-1.81 0.0106-3.61 0.0582-5.42 0.057-1.94 0.17-3.89 0.277-5.83 0.00077-1.94 0.00637-3.88-0.00382-5.82-0.0182-2.03-0.0455-4.06-0.226-6.08-0.184-1.79-0.439-3.58-0.699-5.37-0.193-1.7-0.345-3.4-0.59-5.09-0.167-1.68-0.382-3.35-0.438-5.04 0.00444-1.39 0.0000969-2.77 0.111-4.15 0.101-0.991 0.29-1.97 0.464-2.95 0.199-0.839 0.389-1.69 0.373-2.55l2.45-2.52z"/>
 </g>
</svg>
